<?xml version="1.0" encoding="utf-8"?>
<!-- Generator: Adobe Illustrator 16.0.2, SVG Export Plug-In . SVG Version: 6.00 Build 0)  -->
<!DOCTYPE svg PUBLIC "-//W3C//DTD SVG 1.1//EN" "http://www.w3.org/Graphics/SVG/1.1/DTD/svg11.dtd">
<svg version="1.1" id="Layer_1" xmlns="http://www.w3.org/2000/svg" xmlns:xlink="http://www.w3.org/1999/xlink" x="0px" y="0px"
	 width="612px" height="612px" viewBox="0 0 612 612" enable-background="new 0 0 612 612" xml:space="preserve">
<filter  id="af">
	<feGaussianBlur  stdDeviation="1.47088"></feGaussianBlur>
</filter>
<filter  id="ae">
	<feGaussianBlur  stdDeviation="2.46586"></feGaussianBlur>
</filter>
<filter  width="1.6437" y="-.02605" x="-.32186" height="1.0521" id="ad">
	<feGaussianBlur  stdDeviation="2.81627"></feGaussianBlur>
</filter>
<filter  width="1.3341" y="-.2148" x="-.16707" height="1.4296" id="ac">
	<feGaussianBlur  stdDeviation="2.81928"></feGaussianBlur>
</filter>
<g>
	
		<linearGradient id="SVGID_1_" gradientUnits="userSpaceOnUse" x1="328.5479" y1="-143.2451" x2="317.0912" y2="224.2956" gradientTransform="matrix(1.1029 0 0 1.1029 -54.3649 189.7615)">
		<stop  offset="0" style="stop-color:#EEEEEC"/>
		<stop  offset="1" style="stop-color:#D3D7CF"/>
	</linearGradient>
	<path fill="url(#SVGID_1_)" d="M283.297,603.331c-3.083-0.964-9.019-3.707-13.191-6.095
		c-11.488-6.573-205.317-147.1-212.652-154.164c-7.845-7.567-11.236-16.036-13.95-34.843c-1.096-7.582-9.683-72.962-19.084-145.297
		C4.935,113.026,4.853,111.875,12.765,95.307c7.234-15.146,22.953-27.748,40.966-32.846C71.82,57.342,305.171,7.375,310.987,7.375
		c6.362,0,229.72,48.994,247.034,54.186c20.553,6.164,37.135,21.984,42.586,40.624c1.186,4.05,2.154,12.257,2.154,18.237
		c0,15.149-29.449,300.912-31.891,309.452c-3.954,13.839-5.531,15.004-123.054,90.806
		c-121.252,78.205-121.378,78.284-132.043,81.955c-8.87,3.049-23.909,3.371-32.477,0.692L283.297,603.331L283.297,603.331z"/>
	
		<linearGradient id="SVGID_2_" gradientUnits="userSpaceOnUse" x1="273.4644" y1="244.708" x2="64.5434" y2="-69.974" gradientTransform="matrix(1.1029 0 0 1.1029 -54.3649 189.7615)">
		<stop  offset="0" style="stop-color:#BABDB6"/>
		<stop  offset="1" style="stop-color:#BABDB6;stop-opacity:0"/>
	</linearGradient>
	<path fill="url(#SVGID_2_)" d="M17.676,90.668l-7.796,11.27c-4.631,13.297-2.175,32.458,14.532,160.997
		c9.401,72.331,18.013,137.693,19.108,145.282c2.714,18.807,6.095,27.303,13.939,34.87c7.324,7.066,201.155,147.562,212.638,154.138
		c4.174,2.387,10.094,5.138,13.177,6.102c8.565,2.679,23.626,2.374,32.497-0.68c6.049-2.079,9.43-3.503,32.706-18.175l0.892-1.99
		c0,0-43.139,14.386-56.562-12.458l-4.787-310.632c-7.67-29.387-26.843-48.23-48.893-62.281L18.654,105.047
		c-3.389-7.119-0.975-14.364-0.975-14.364L17.676,90.668z"/>
	
		<linearGradient id="SVGID_3_" gradientUnits="userSpaceOnUse" x1="164.1455" y1="373.5615" x2="223.2219" y2="285.1559" gradientTransform="matrix(1.1029 0 0 1.1029 -54.3649 189.7615)">
		<stop  offset="0" style="stop-color:#000000"/>
		<stop  offset="1" style="stop-color:#000000;stop-opacity:0"/>
	</linearGradient>
	<path opacity="0.99" fill="url(#SVGID_3_)" enable-background="new    " d="M44.481,410.136
		c2.714,18.806,5.135,25.382,12.98,32.951c7.324,7.066,201.154,147.562,212.637,154.138c4.175,2.387,10.095,5.138,13.178,6.102
		c8.565,2.682,23.627,2.374,32.497-0.678c6.048-2.081,9.431-3.505,32.706-18.177l0.891-1.99c0,0-42.179,16.305-55.603-10.537
		L44.468,410.146L44.481,410.136z"/>
	
		<linearGradient id="SVGID_4_" gradientUnits="userSpaceOnUse" x1="267.0625" y1="416.9131" x2="345.7121" y2="290.4444" gradientTransform="matrix(-1.1012 -0.0624 -0.0624 1.1012 825.3085 198.3083)">
		<stop  offset="0" style="stop-color:#000000"/>
		<stop  offset="1" style="stop-color:#000000;stop-opacity:0"/>
	</linearGradient>
	<path opacity="0.99" fill="url(#SVGID_4_)" enable-background="new    " d="M571.304,418.908
		c-3.774,18.621-18.078,48.082-14.826,32.164c2.038-9.97-191.922,122.526-203.771,128.437c-4.302,2.149-10.369,4.558-13.501,5.348
		c-8.703,2.189-23.724,1.031-32.404-2.515c-5.92-2.422-9.217-4.03-31.627-19.998l-0.775-2.039c0,0,41.19,18.667,56.109-7.375
		l240.785-134.021H571.304L571.304,418.908z"/>
	<g opacity="0.99" filter="url(#ad)" enable-background="new    ">
		
			<linearGradient id="SVGID_5_" gradientUnits="userSpaceOnUse" x1="328.3477" y1="15.2871" x2="328.3477" y2="296.1797" gradientTransform="matrix(1.1029 0 0 1.1029 -54.3649 189.7615)">
			<stop  offset="0" style="stop-color:#EEEEEC"/>
			<stop  offset="1" style="stop-color:#D3D7CF"/>
		</linearGradient>
		<polygon fill="url(#SVGID_5_)" points="293.534,215.76 322.006,216.438 301.669,567.579 298.958,567.579 		"/>
	</g>
	<g opacity="0.99" filter="url(#af)" enable-background="new    ">
		
			<linearGradient id="SVGID_6_" gradientUnits="userSpaceOnUse" x1="146.126" y1="-55.3569" x2="329.933" y2="30.1092" gradientTransform="matrix(1.1029 0 0 1.1029 -54.3649 189.7615)">
			<stop  offset="0" style="stop-color:#FFFFFF"/>
			<stop  offset="1" style="stop-color:#FFFFFF;stop-opacity:0"/>
		</linearGradient>
		<polygon fill="url(#SVGID_6_)" points="299.633,221.861 303.024,211.015 22.381,97.131 19.669,97.131 		"/>
	</g>
	<g opacity="0.99" filter="url(#ae)" enable-background="new    ">
		
			<linearGradient id="SVGID_7_" gradientUnits="userSpaceOnUse" x1="515.5723" y1="-46.0029" x2="313.4615" y2="19.9676" gradientTransform="matrix(1.1029 0 0 1.1029 -54.3649 189.7615)">
			<stop  offset="0" style="stop-color:#FFFFFF"/>
			<stop  offset="1" style="stop-color:#FFFFFF;stop-opacity:0"/>
		</linearGradient>
		<polygon fill="url(#SVGID_7_)" points="306.413,225.251 307.092,215.082 590.446,95.775 593.158,95.775 		"/>
	</g>
	<g opacity="0.449" filter="url(#ac)" enable-background="new    ">
		<ellipse fill="#EFEFED" cx="305.396" cy="210.676" rx="27.454" ry="21.353"/>
	</g>
	<g transform="translate(-49.198 30.844)">
		
			<linearGradient id="SVGID_8_" gradientUnits="userSpaceOnUse" x1="407.6804" y1="210.8708" x2="439.6396" y2="210.8708" gradientTransform="matrix(1.1029 0 0 1.1029 -113.6891 158.9159)">
			<stop  offset="0" style="stop-color:#BABDB6"/>
			<stop  offset="1" style="stop-color:#D3D7CF"/>
		</linearGradient>
		<path fill="url(#SVGID_8_)" d="M334.597,211.352l18.98,195.23l18.981-195.23v355.902c-15.594,8.199-37.962,2.341-37.962,2.341
			V211.35L334.597,211.352L334.597,211.352z"/>
		
			<linearGradient id="SVGID_9_" gradientUnits="userSpaceOnUse" x1="425.572" y1="392.5896" x2="425.572" y2="353.4762" gradientTransform="matrix(1.1029 0 0 1.1029 -113.6891 158.9159)">
			<stop  offset="0" style="stop-color:#2E3436"/>
			<stop  offset="1" style="stop-color:#2E3436;stop-opacity:0"/>
		</linearGradient>
		<path fill="url(#SVGID_9_)" d="M391.865,555.46l-42.661-6.71l-29.72,16.776l24.925,10.064l17.257-0.96L391.865,555.46
			L391.865,555.46z"/>
		
			<linearGradient id="SVGID_10_" gradientUnits="userSpaceOnUse" x1="312.1941" y1="127.8386" x2="359.3479" y2="180.1552" gradientTransform="matrix(1.1029 0 0 1.1029 -113.6891 158.9159)">
			<stop  offset="0" style="stop-color:#5C0000"/>
			<stop  offset="1" style="stop-color:#CC0000"/>
		</linearGradient>
		<path fill="url(#SVGID_10_)" d="M287.538,334.01c0,21.273-10.537,38.52-24.9,38.52c-14.362,0-27.11-17.243-27.11-38.52
			c0-21.274,7.637-38.521,24.347-38.521C274.238,295.489,287.538,312.735,287.538,334.01z"/>
		
			<linearGradient id="SVGID_11_" gradientUnits="userSpaceOnUse" x1="320.3586" y1="220.0505" x2="366.5653" y2="288.5063" gradientTransform="matrix(1.1029 0 0 1.1029 -113.6891 158.9159)">
			<stop  offset="0" style="stop-color:#5C0000"/>
			<stop  offset="1" style="stop-color:#CC0000"/>
		</linearGradient>
		<path fill="url(#SVGID_11_)" d="M290.683,439.299c0,20.847-10.325,37.749-24.4,37.749s-26.569-16.902-26.569-37.749
			c0-20.849,7.485-37.748,23.859-37.748C277.647,401.551,290.683,418.45,290.683,439.299L290.683,439.299z"/>
		
			<linearGradient id="SVGID_12_" gradientUnits="userSpaceOnUse" x1="174.8884" y1="-28.4622" x2="219.2632" y2="4.4071" gradientTransform="matrix(1.1029 0 0 1.1029 -113.6891 158.9159)">
			<stop  offset="0" style="stop-color:#5C0000"/>
			<stop  offset="1" style="stop-color:#CC0000"/>
		</linearGradient>
		<path fill="url(#SVGID_12_)" d="M136.872,151.969c0,20.021-9.917,36.254-23.435,36.254c-13.519,0-25.516-16.23-25.516-36.254
			s7.188-36.255,22.915-36.255C124.353,115.714,136.872,131.945,136.872,151.969L136.872,151.969z"/>
		
			<linearGradient id="SVGID_13_" gradientUnits="userSpaceOnUse" x1="193.0125" y1="59.8889" x2="236.5023" y2="124.3124" gradientTransform="matrix(1.1029 0 0 1.1029 -113.6891 158.9159)">
			<stop  offset="0" style="stop-color:#5C0000"/>
			<stop  offset="1" style="stop-color:#CC0000"/>
		</linearGradient>
		<path fill="url(#SVGID_13_)" d="M147.23,260.432c0,19.623-9.718,35.53-22.967,35.53c-13.248,0-25.006-15.907-25.006-35.53
			c0-19.621,7.043-35.529,22.457-35.529C134.962,224.903,147.23,240.811,147.23,260.432z"/>
		
			<linearGradient id="SVGID_14_" gradientUnits="userSpaceOnUse" x1="202.0554" y1="152.7312" x2="244.6855" y2="215.8651" gradientTransform="matrix(1.1029 0 0 1.1029 -113.6891 158.9159)">
			<stop  offset="0" style="stop-color:#5C0000"/>
			<stop  offset="1" style="stop-color:#CC0000"/>
		</linearGradient>
		<path fill="url(#SVGID_14_)" d="M156.247,362.113c0,19.234-9.524,34.82-22.507,34.82c-12.983,0-24.508-15.589-24.508-34.82
			c0-19.229,6.904-34.816,22.007-34.816C144.222,327.297,156.247,342.885,156.247,362.113L156.247,362.113z"/>
		<g transform="matrix(-.94857 0 0 .94857 1096.1 -308.81)">
			
				<linearGradient id="SVGID_15_" gradientUnits="userSpaceOnUse" x1="764.1886" y1="370.087" x2="780.6844" y2="421.3817" gradientTransform="matrix(0.9924 0 0 0.9924 -55.2919 184.2417)">
				<stop  offset="0" style="stop-color:#A40000"/>
				<stop  offset="1" style="stop-color:#D14040"/>
			</linearGradient>
			<path fill="url(#SVGID_15_)" d="M724.443,568.605c0,21.708-10.752,39.305-25.405,39.305c-14.656,0-27.666-17.599-27.666-39.305
				s7.795-39.305,24.843-39.305c14.657,0,28.23,17.597,28.23,39.305H724.443z"/>
			
				<linearGradient id="SVGID_16_" gradientUnits="userSpaceOnUse" x1="754.9199" y1="621.2242" x2="801.127" y2="655.4585" gradientTransform="matrix(0.9924 0 0 0.9924 -55.2919 184.2417)">
				<stop  offset="0" style="stop-color:#A40000"/>
				<stop  offset="1" style="stop-color:#D14040"/>
			</linearGradient>
			<path fill="url(#SVGID_16_)" d="M729.771,793.567c0,20.849-10.326,37.749-24.4,37.749c-14.074,0-26.57-16.9-26.57-37.749
				c0-20.848,7.486-37.747,23.857-37.747C716.736,755.817,729.771,772.72,729.771,793.567L729.771,793.567z"/>
			
				<linearGradient id="SVGID_17_" gradientUnits="userSpaceOnUse" x1="582.7127" y1="309.8" x2="622.5042" y2="346.174" gradientTransform="matrix(0.9924 0 0 0.9924 -55.2919 184.2417)">
				<stop  offset="0" style="stop-color:#A40000"/>
				<stop  offset="1" style="stop-color:#D14040"/>
			</linearGradient>
			<path fill="url(#SVGID_17_)" d="M550.675,489.374c0,20.021-9.916,36.255-23.435,36.255s-25.517-16.232-25.517-36.255
				c0-20.023,7.189-36.254,22.916-36.254C538.157,453.121,550.675,469.351,550.675,489.374z"/>
			
				<linearGradient id="SVGID_18_" gradientUnits="userSpaceOnUse" x1="602.5226" y1="531.6605" x2="645.1399" y2="563.2271" gradientTransform="matrix(0.9924 0 0 0.9924 -55.2919 184.2417)">
				<stop  offset="0" style="stop-color:#A40000"/>
				<stop  offset="1" style="stop-color:#D14040"/>
			</linearGradient>
			<path fill="url(#SVGID_18_)" d="M575.756,705.24c0,19.229-9.524,34.817-22.507,34.817s-24.507-15.588-24.507-34.817
				c0-19.23,6.903-34.819,22.007-34.819C563.732,670.42,575.756,686.009,575.756,705.24z"/>
			<path opacity="0.25" fill="#FFFFFF" enable-background="new    " d="M717.612,573.283c0,21.273-10.539,38.52-24.902,38.52
				c-14.364,0-27.11-17.245-27.11-38.52c0-21.276,7.638-38.52,24.346-38.52C704.309,534.763,717.612,552.007,717.612,573.283z"/>
			<path opacity="0.25" fill="#FFFFFF" enable-background="new    " d="M721.135,794.626c0,20.846-10.327,37.747-24.4,37.747
				c-14.074,0-26.571-16.901-26.571-37.747c0-20.848,7.486-37.75,23.859-37.75C708.099,756.876,721.135,773.778,721.135,794.626
				L721.135,794.626z"/>
			<path opacity="0.25" fill="#FFFFFF" enable-background="new    " d="M567.866,709.13c0,19.624-9.721,35.527-22.967,35.527
				c-13.249,0-25.008-15.904-25.008-35.527c0-19.623,7.045-35.528,22.458-35.528C555.597,673.602,567.866,689.507,567.866,709.13z"
				/>
			<path opacity="0.25" fill="#FFFFFF" enable-background="new    " d="M542.743,493.239c0,20.431-10.119,36.992-23.911,36.992
				c-13.794,0-26.038-16.561-26.038-36.992c0-20.43,7.335-36.994,23.382-36.994c13.794,0,26.569,16.562,26.569,36.994H542.743z"/>
		</g>
		
			<linearGradient id="SVGID_19_" gradientUnits="userSpaceOnUse" x1="357.6422" y1="-344.4323" x2="473.4734" y2="-357.1672" gradientTransform="matrix(0.7945 0 0 0.6302 43.5049 272.0757)">
			<stop  offset="0" style="stop-color:#A40000"/>
			<stop  offset="1" style="stop-color:#000000"/>
		</linearGradient>
		<path fill="url(#SVGID_19_)" d="M399.676,52.736c0,8.985-20.552,16.269-45.902,16.269c-25.35,0-45.902-7.285-45.902-16.269
			c0-8.984,20.552-16.27,45.902-16.27C379.125,36.467,399.676,43.752,399.676,52.736z"/>
		
			<linearGradient id="SVGID_20_" gradientUnits="userSpaceOnUse" x1="354.1613" y1="-354.2716" x2="437.4433" y2="-410.5962" gradientTransform="matrix(0.7505 0 0 0.4086 63.716 210.3573)">
			<stop  offset="0" style="stop-color:#CC0000"/>
			<stop  offset="1" style="stop-color:#690000"/>
		</linearGradient>
		<path fill="url(#SVGID_20_)" d="M396.377,56.612c0,5.825-19.413,12.465-43.36,12.465s-43.36-6.64-43.36-12.465
			c0-5.826,19.413-10.548,43.36-10.548S396.377,50.786,396.377,56.612z"/>
		
			<linearGradient id="SVGID_21_" gradientUnits="userSpaceOnUse" x1="305.1115" y1="26.2186" x2="353.2238" y2="61.8543" gradientTransform="matrix(1.1029 0 0 1.1029 -113.6891 158.9158)">
			<stop  offset="0" style="stop-color:#5C0000"/>
			<stop  offset="1" style="stop-color:#CC0000"/>
		</linearGradient>
		<path fill="url(#SVGID_21_)" d="M285.356,214.337c0,21.708-10.752,39.305-25.407,39.305c-14.655,0-27.664-17.599-27.664-39.305
			c0-21.708,7.792-39.304,24.842-39.304C271.783,175.033,285.357,192.629,285.356,214.337L285.356,214.337z"/>
		<path opacity="0.25" fill="#FFFFFF" enable-background="new    " d="M284.84,215.529c3.949,17.952-1.743,34.459-13.863,37.125
			c-12.119,2.665-26.078-9.522-30.025-27.473c-3.949-17.953-0.705-33.922,13.395-37.022
			C266.466,185.494,280.893,197.576,284.84,215.529L284.84,215.529z"/>
		<path opacity="0.25" fill="#FFFFFF" enable-background="new    " d="M287.782,334.255c3.869,17.593-1.709,33.771-13.585,36.384
			c-11.877,2.612-25.556-9.331-29.425-26.922c-3.869-17.595-0.689-33.245,13.128-36.283
			C269.777,304.821,283.914,316.663,287.782,334.255L287.782,334.255z"/>
		<path opacity="0.25" fill="#FFFFFF" enable-background="new    " d="M290.06,438.742c3.792,17.24-1.673,33.096-13.313,35.654
			c-11.64,2.56-25.045-9.142-28.837-26.382c-3.792-17.241-0.676-32.58,12.866-35.557
			C272.414,409.896,286.268,421.502,290.06,438.742L290.06,438.742z"/>
		<path opacity="0.25" fill="#FFFFFF" enable-background="new    " d="M140.248,153.641c3.791,17.241-1.673,33.095-13.313,35.656
			c-11.64,2.56-25.046-9.146-28.837-26.385c-3.792-17.24-0.676-32.577,12.866-35.557C122.603,124.794,136.457,136.4,140.248,153.641
			L140.248,153.641z"/>
		<path opacity="0.25" fill="#FFFFFF" enable-background="new    " d="M150.674,259.482c3.716,16.896-1.64,32.434-13.047,34.943
			c-11.408,2.509-24.545-8.961-28.262-25.858c-3.716-16.896-0.663-31.927,12.609-34.847
			C133.38,231.215,146.958,242.588,150.674,259.482z"/>
		<path opacity="0.25" fill="#FFFFFF" enable-background="new    " d="M159.744,362.615c3.641,16.56-1.607,31.785-12.786,34.241
			c-11.179,2.459-24.054-8.779-27.695-25.336c-3.642-16.559-0.649-31.29,12.355-34.15
			C142.798,334.912,156.102,346.057,159.744,362.615L159.744,362.615z"/>
	</g>
	<g transform="translate(-49.198 30.844)">
		<path fill="none" stroke="#888A85" stroke-width="4" d="M332.495,572.488c-3.083-0.962-9.019-3.706-13.191-6.093
			c-11.488-6.573-205.317-147.1-212.652-154.164c-7.845-7.567-11.236-16.039-13.95-34.844c-1.096-7.582-9.683-72.963-19.084-145.296
			C54.131,82.184,54.051,81.031,61.963,64.464c7.234-15.146,22.953-27.748,40.966-32.846c18.089-5.12,251.441-55.086,257.257-55.086
			c6.362,0,229.72,48.994,247.034,54.186c20.553,6.164,37.135,21.983,42.586,40.624c1.186,4.05,2.154,12.257,2.154,18.237
			c0,15.149-29.449,300.91-31.891,309.452c-3.954,13.839-5.531,15.004-123.054,90.806
			c-121.252,78.206-121.378,78.285-132.043,81.953c-8.87,3.052-23.909,3.374-32.477,0.692L332.495,572.488L332.495,572.488z"/>
	</g>
</g>
</svg>
